<?xml version="1.0" standalone="no"?>
<!DOCTYPE svg PUBLIC "-//W3C//DTD SVG 20010904//EN"
 "http://www.w3.org/TR/2001/REC-SVG-20010904/DTD/svg10.dtd">
<svg version="1.0" xmlns="http://www.w3.org/2000/svg"
 width="300.000000pt" height="176.000000pt" viewBox="0 0 300.000000 176.000000"
 preserveAspectRatio="xMidYMid meet">
<metadata>
Created by potrace 1.10, written by Peter Selinger 2001-2011
</metadata>
<g transform="translate(0.000000,176.000000) scale(0.100000,-0.100000)"
fill="#000000" stroke="none">
<path d="M1156 1745 c-11 -8 -16 -15 -10 -15 5 0 18 7 28 15 11 8 16 15 10 15
-5 0 -18 -7 -28 -15z"/>
<path d="M1422 1735 c0 -16 2 -22 5 -12 2 9 2 23 0 30 -3 6 -5 -1 -5 -18z"/>
<path d="M781 1734 c0 -11 3 -14 6 -6 3 7 2 16 -1 19 -3 4 -6 -2 -5 -13z"/>
<path d="M2062 1730 c0 -14 2 -19 5 -12 2 6 2 18 0 25 -3 6 -5 1 -5 -13z"/>
<path d="M1665 1690 c-3 -5 -1 -10 4 -10 6 0 11 5 11 10 0 6 -2 10 -4 10 -3 0
-8 -4 -11 -10z"/>
<path d="M1390 1679 c0 -5 5 -7 10 -4 6 3 10 8 10 11 0 2 -4 4 -10 4 -5 0 -10
-5 -10 -11z"/>
<path d="M1780 1678 c0 -4 4 -8 9 -8 6 0 12 4 15 8 3 5 -1 9 -9 9 -8 0 -15 -4
-15 -9z"/>
<path d="M2680 1686 c0 -2 7 -7 16 -10 8 -3 12 -2 9 4 -6 10 -25 14 -25 6z"/>
<path d="M603 1662 c5 -23 5 -23 -14 -6 -18 16 -19 16 -19 -2 0 -15 -2 -16 -9
-5 -7 11 -10 10 -14 -5 -4 -15 -5 -14 -6 6 -2 42 -19 9 -38 -75 -15 -67 -18
-126 -18 -357 0 -153 -4 -278 -8 -278 -5 0 -18 5 -30 12 -18 9 -18 7 6 -22 31
-36 30 -48 -3 -30 -35 19 -34 4 2 -18 30 -20 33 -20 39 -4 3 9 4 23 2 30 -10
25 17 11 32 -18 9 -16 20 -30 25 -30 19 0 10 -15 -15 -27 -25 -11 -48 1 -29
16 5 3 10 15 12 26 2 18 1 18 -16 -4 -16 -20 -22 -22 -40 -12 -29 16 -34 14
-22 -8 14 -27 14 -27 -26 -23 -28 3 -35 1 -29 -8 5 -8 4 -11 -3 -7 -5 4 -21 3
-34 -2 -20 -8 -16 -10 22 -11 57 -1 93 -20 38 -20 -20 0 -40 -4 -43 -10 -3 -5
-22 -10 -41 -10 -34 0 -144 -52 -188 -89 -20 -17 -87 -115 -111 -162 -19 -36
-19 -110 -1 -154 l15 -35 1068 0 c587 0 1231 -3 1430 -7 l362 -6 20 34 c13 21
21 51 21 78 0 42 1 43 15 25 14 -18 14 -18 15 9 0 66 -80 175 -161 217 -85 44
-260 60 -368 33 -23 -6 -25 -5 -12 10 11 15 11 17 -2 17 -24 0 -47 -11 -42
-20 3 -5 -18 -22 -45 -39 -50 -31 -70 -38 -70 -23 1 13 31 47 43 48 18 1 51
16 57 26 3 4 24 14 45 22 23 8 32 15 21 15 -20 1 -20 1 0 17 19 15 19 16 -1 9
-11 -4 -29 -10 -40 -12 -20 -5 -20 -5 0 10 19 16 19 16 -10 17 l-30 1 28 20
c15 11 27 25 27 31 0 5 -12 0 -26 -11 -42 -33 -49 -25 -9 10 19 17 35 36 35
42 0 6 -13 -2 -30 -18 -32 -30 -37 -28 -19 8 9 20 8 19 -12 -3 -18 -20 -21
-21 -15 -5 5 11 14 62 20 113 7 51 18 98 24 104 18 18 14 32 -4 17 -15 -12
-16 -7 -8 61 13 107 6 366 -11 406 -10 24 -10 35 -2 44 9 10 7 11 -12 5 -17
-5 -21 -4 -16 5 5 9 2 10 -14 5 -23 -7 -28 4 -9 23 20 20 -4 14 -26 -7 -27
-24 -73 -35 -79 -18 -4 9 -6 9 -6 0 -1 -7 -34 -35 -73 -62 -81 -55 -169 -142
-273 -271 -38 -47 -75 -91 -82 -98 -7 -7 -13 -19 -13 -25 0 -7 -9 -18 -20 -25
-11 -7 -20 -17 -20 -23 0 -7 10 -5 25 5 35 23 42 20 37 -15 -5 -36 -2 -35 61
14 43 33 48 28 12 -15 -14 -17 -24 -32 -22 -35 3 -2 24 1 48 6 24 6 60 10 79
10 27 -1 19 -5 -39 -20 -103 -26 -111 -39 -13 -20 23 5 42 5 42 1 0 -4 -17
-11 -37 -15 l-38 -8 35 -10 c19 -5 70 -12 113 -14 42 -3 77 -9 77 -13 0 -5 7
-7 15 -4 12 5 14 15 9 40 -6 34 -6 35 20 23 29 -13 31 -20 15 -36 -8 -8 -8
-13 0 -17 6 -4 11 -12 11 -18 0 -7 -23 -8 -67 -5 l-68 6 55 -19 c30 -10 79
-19 109 -19 47 -1 52 1 40 15 -7 8 -29 24 -48 34 -29 16 -32 19 -14 20 12 0
29 3 38 6 30 12 -52 57 -112 62 -45 4 -52 7 -41 19 13 16 80 52 118 64 20 6
16 7 -21 8 -47 1 -144 -23 -166 -41 -30 -24 -9 8 36 58 50 54 117 154 103 154
-4 0 -33 -16 -66 -35 -32 -20 -60 -34 -63 -32 -5 6 137 137 148 137 5 0 9 4 9
10 0 6 -9 6 -26 -1 -15 -5 -29 -8 -31 -5 -7 7 106 93 152 117 l40 21 -61 -4
c-34 -2 -78 -13 -102 -25 -23 -11 -42 -17 -42 -12 0 15 143 79 177 79 50 0 78
-33 86 -101 7 -58 -8 -313 -19 -331 -4 -7 -3 -8 4 -4 17 10 15 -6 -8 -64 -11
-28 -19 -54 -18 -58 1 -4 -8 -38 -21 -75 -13 -38 -20 -71 -17 -74 3 -3 9 5 14
18 5 13 12 31 15 39 4 11 6 10 7 -5 1 -20 1 -20 16 0 15 19 16 18 9 -15 -4
-19 -20 -56 -35 -82 -20 -34 -25 -48 -15 -48 22 0 45 12 40 20 -3 5 -1 11 5
15 5 3 10 -1 10 -9 0 -16 -59 -66 -78 -66 -19 0 -14 -20 6 -20 9 -1 28 -8 42
-16 l25 -15 -25 6 c-48 11 -166 16 -145 6 11 -5 36 -12 56 -15 19 -4 44 -12
54 -20 15 -11 6 -12 -66 -9 -91 4 -88 -3 18 -32 34 -10 60 -22 57 -27 -10 -15
-84 2 -181 42 -50 21 -94 36 -97 32 -3 -3 -6 7 -6 21 0 32 16 36 25 7 7 -22
39 -34 76 -28 20 3 13 9 -41 40 -36 21 -87 45 -113 55 -52 19 -62 33 -19 25
19 -3 24 -1 17 6 -5 6 -36 12 -68 13 -55 2 -64 11 -22 23 11 3 0 4 -25 2 -25
-2 -54 -7 -64 -12 -14 -5 -17 -4 -12 4 4 7 3 12 -2 12 -14 0 -92 -59 -92 -70
0 -6 -7 -10 -15 -10 -9 0 -15 -10 -15 -26 0 -14 -5 -35 -11 -46 -6 -11 -11
-36 -11 -54 0 -42 -3 -42 -23 -4 -22 42 -19 118 6 165 26 48 51 105 46 105 -7
0 -77 -118 -77 -129 0 -6 -5 -11 -11 -11 -8 0 -9 14 -5 43 5 32 4 39 -5 30 -6
-6 -14 -41 -17 -78 l-5 -68 -19 24 -19 24 6 -25 c4 -14 20 -42 36 -62 37 -46
37 -59 2 -27 -19 16 -23 18 -12 4 31 -39 32 -50 1 -21 -38 36 -42 26 -7 -16
46 -55 35 -63 -94 -66 -63 -1 -118 1 -123 6 -5 5 3 25 17 46 25 37 19 39 -19
7 -18 -15 -18 -15 -5 8 8 13 36 38 64 57 27 19 45 34 39 34 -5 0 -19 -7 -30
-15 -30 -23 -35 -18 -15 18 22 37 38 117 23 117 -5 0 -12 -17 -16 -37 -3 -21
-14 -50 -24 -65 l-17 -26 0 61 c0 51 -5 69 -28 102 -16 24 -27 53 -27 74 0 28
-2 31 -14 22 -11 -10 -15 -8 -19 6 -3 10 -5 1 -6 -19 -1 -25 9 -52 31 -88 22
-35 33 -67 36 -104 4 -46 1 -56 -22 -82 l-27 -29 5 35 c5 26 4 30 -3 15 -7
-14 -10 -15 -10 -5 -4 75 -52 142 -126 176 -52 25 -96 34 -65 14 11 -7 6 -10
-21 -10 -19 0 -44 -7 -55 -16 -16 -13 -16 -15 -1 -10 9 3 17 2 17 -3 0 -5 -8
-11 -17 -15 -10 -3 -24 -9 -32 -12 -9 -4 -11 -2 -7 5 9 14 -6 15 -20 1 -5 -5
-36 -21 -69 -34 -60 -25 -57 -36 4 -15 18 6 34 9 37 6 12 -11 -64 -52 -106
-57 -30 -4 -44 -10 -42 -19 1 -7 -2 -10 -8 -6 -24 15 -31 -8 -9 -31 l22 -23
-27 -12 c-29 -14 -50 -3 -23 12 24 14 21 22 -12 42 -42 24 -51 21 -17 -6 25
-20 27 -25 13 -30 -11 -4 -30 5 -52 25 -20 17 -39 28 -42 24 -3 -3 -1 -6 4 -6
6 0 26 -19 45 -42 l33 -43 -34 25 c-68 51 -75 52 -31 6 25 -26 37 -44 27 -40
-10 4 4 -17 32 -46 48 -50 62 -79 24 -49 -15 11 -15 10 1 -9 18 -20 28 -22
135 -23 68 0 133 -6 156 -14 40 -13 40 -13 -30 -9 -38 2 -107 6 -152 9 l-82 5
5 -32 c10 -65 -47 -93 -62 -31 -4 15 -13 37 -21 48 -13 18 -14 17 -8 -16 7
-40 -7 -59 -42 -56 -19 1 -21 6 -16 53 4 36 2 54 -7 59 -10 6 -12 4 -7 -8 12
-32 -11 -17 -27 17 -17 36 -22 86 -8 86 5 0 17 -7 28 -15 29 -22 36 -18 18 10
-16 24 -16 25 2 18 10 -4 3 7 -16 24 -19 18 -37 27 -39 22 -1 -6 -12 -3 -22 7
-23 21 -24 13 -3 -28 21 -40 6 -56 -30 -33 -15 10 -25 20 -22 22 2 3 16 -3 30
-12 14 -10 26 -13 26 -7 0 13 -111 94 -118 87 -3 -3 0 -11 6 -17 20 -20 13
-32 -8 -13 -11 10 -20 28 -20 39 -1 19 -2 19 -11 4 -12 -21 8 -74 40 -102 22
-20 30 -9 9 12 -8 8 -8 12 -1 12 15 0 103 -84 103 -99 0 -11 -3 -11 -15 -1
-20 16 -19 12 5 -35 25 -49 25 -70 0 -95 -25 -25 -40 -26 -40 -2 0 20 -46 122
-56 122 -6 0 0 -32 13 -67 6 -16 5 -16 -10 -4 -15 12 -17 9 -18 -30 l-1 -44
-10 33 c-12 36 -33 44 -26 9 5 -28 -8 -42 -47 -49 -27 -6 -28 -5 -10 8 10 8
24 14 30 14 7 0 12 19 13 47 l0 48 -17 -34 -18 -34 -11 46 c-7 25 -12 63 -12
84 1 38 1 38 15 13 l14 -25 1 30 c0 17 7 39 15 49 8 11 15 36 15 55 l0 35 -32
-30 c-18 -16 -26 -21 -19 -11 22 29 6 30 -28 2 -22 -19 -31 -36 -31 -56 0 -19
-5 -29 -15 -29 -26 0 -16 32 26 82 43 51 42 62 -3 25 -27 -22 -98 -131 -98
-151 0 -5 12 1 26 15 19 17 28 20 31 11 4 -10 8 -10 19 -1 12 9 14 5 14 -25 0
-21 4 -35 9 -32 11 7 21 -28 21 -79 0 -40 -1 -41 -33 -40 -18 1 -38 5 -44 8
-6 4 -14 1 -16 -5 -3 -7 -6 -3 -6 9 -1 16 -6 21 -16 17 -10 -4 -15 0 -15 12 0
16 -2 16 -10 4 -7 -11 -11 -9 -19 14 -6 15 -9 32 -5 37 3 5 0 9 -6 9 -7 0 -7
7 2 23 6 12 13 27 14 34 3 16 38 66 58 83 9 7 14 16 11 20 -3 5 9 20 26 34 86
73 175 101 310 100 56 -1 76 -7 134 -37 72 -38 90 -41 60 -7 -17 19 -17 20 -1
20 10 0 26 -5 37 -10 12 -7 19 -7 19 -1 0 6 7 8 15 5 8 -4 15 -2 15 4 0 5 -30
15 -67 22 -87 15 -121 28 -134 51 -9 17 -7 17 25 -2 30 -17 44 -19 98 -13 55
7 59 9 33 15 -16 5 -52 11 -80 15 l-50 7 35 9 c19 6 60 19 90 30 30 11 71 26
90 33 l35 13 -27 13 c-16 7 -28 15 -28 19 0 7 91 30 121 30 11 0 17 5 14 10
-4 6 5 10 19 10 14 0 26 2 26 5 0 12 -24 55 -32 55 -4 0 -14 13 -20 30 l-13
29 -78 -44 c-44 -25 -84 -45 -90 -44 -7 0 -3 4 7 8 17 6 14 10 -18 29 -43 26
-53 28 -37 8 10 -12 8 -13 -11 -9 -30 8 -23 1 52 -52 l61 -43 -38 -7 c-22 -3
-51 -1 -67 4 -47 18 -52 12 -16 -19 40 -33 27 -41 -14 -9 -36 28 -45 17 -12
-16 31 -31 32 -42 6 -50 -25 -8 -51 6 -84 46 -32 38 -37 72 -6 44 29 -26 36
-11 11 21 -22 27 -21 48 1 26 26 -26 27 -10 4 37 -34 66 -67 219 -45 206 5 -4
9 36 9 99 0 121 13 195 41 231 52 65 133 9 313 -217 43 -54 81 -100 85 -103 5
-2 6 -16 3 -31 l-5 -27 -14 24 -14 24 4 -27 c2 -16 0 -28 -4 -28 -5 0 -9 6 -9
13 0 12 -101 178 -148 244 -15 21 -42 39 -80 53 -31 12 -63 26 -70 32 -18 16
-27 1 -11 -18 7 -9 39 -34 71 -55 32 -22 62 -48 68 -59 20 -38 16 -37 -86 25
-16 10 11 -21 61 -68 49 -47 86 -89 82 -93 -4 -4 -22 6 -40 23 -30 29 -96 68
-102 61 -3 -3 155 -149 197 -181 12 -10 1 -6 -27 9 -101 55 -121 63 -165 69
l-45 5 53 -21 c29 -12 73 -40 98 -62 48 -43 54 -62 7 -28 -15 11 -44 23 -63
26 -33 6 -34 5 -12 -7 24 -15 57 -57 49 -64 -2 -2 -16 0 -31 6 -15 5 -46 10
-69 9 -41 -1 -41 -1 -11 -9 18 -4 47 -16 65 -28 26 -15 37 -17 45 -9 25 26 57
49 81 58 14 5 52 25 85 44 76 45 104 47 59 3 -27 -27 -67 -96 -59 -103 2 -1
14 -8 28 -15 22 -12 24 -12 12 2 -10 12 -10 17 -1 20 9 3 9 9 0 27 -7 12 -10
25 -8 28 3 3 13 -9 22 -27 20 -39 29 -34 14 8 -6 17 -8 37 -6 44 4 8 8 4 12
-9 9 -30 21 -29 29 2 7 28 26 34 26 8 0 -14 4 -13 24 6 16 15 31 21 44 17 18
-6 19 -11 11 -39 -5 -17 -9 -50 -9 -72 l-1 -40 -31 34 -31 35 5 -47 c6 -52 -2
-59 -25 -24 -23 34 -32 12 -10 -25 18 -31 143 -141 151 -133 3 2 -5 16 -17 31
-25 31 -27 49 -6 40 16 -6 21 9 6 18 -28 18 -11 189 25 241 8 11 14 29 14 40
0 15 -2 17 -9 6 -7 -11 -10 -9 -16 8 -10 31 -20 25 -22 -14 -2 -27 1 -35 14
-35 13 0 14 -3 6 -11 -8 -8 -17 -7 -34 5 -13 9 -18 16 -11 16 9 0 12 37 11
148 l-2 147 -8 -125 c-5 -69 -6 -131 -4 -137 7 -20 -33 -10 -51 13 -13 16 -15
16 -10 2 3 -10 2 -18 -3 -18 -11 0 -87 72 -94 90 -5 13 -8 12 -21 -4 -14 -17
-15 -16 -11 20 4 30 3 33 -3 14 l-8 -25 -8 23 c-4 12 -12 20 -17 17 -5 -4 -9
1 -9 10 0 9 -4 14 -9 10 -5 -3 -12 4 -16 15 -4 11 -10 18 -14 15 -5 -2 -22 17
-38 44 -17 26 -59 72 -94 100 -35 29 -75 67 -88 84 -20 28 -23 29 -18 9z m-16
-38 c-3 -3 -12 -4 -19 -1 -8 3 -5 6 6 6 11 1 17 -2 13 -5z m1583 -104 c0 -5
-7 -10 -16 -10 -8 0 -12 5 -9 10 3 6 10 10 16 10 5 0 9 -4 9 -10z m-80 -37
c-55 -37 -140 -134 -181 -208 -44 -81 -93 -145 -111 -145 -6 0 2 16 17 36 24
31 25 34 7 25 -37 -20 -36 -12 4 27 21 20 73 84 114 141 58 80 84 108 115 122
49 23 68 24 35 2z m-1370 -23 c0 -5 -2 -10 -4 -10 -3 0 -8 5 -11 10 -3 6 -1
10 4 10 6 0 11 -4 11 -10z m1334 -51 c-4 -8 1 -9 17 -4 l24 6 -25 -21 c-46
-39 -103 -80 -111 -80 -19 0 5 29 46 54 24 16 44 31 43 35 -1 12 2 21 8 21 3
0 2 -5 -2 -11z m-1234 -100 c22 -33 40 -63 40 -65 0 -3 10 -18 21 -33 37 -50
12 -56 -36 -9 -32 30 -41 45 -34 54 11 14 -9 61 -35 83 -13 11 -14 31 -1 31 3
0 22 -27 45 -61z m1170 -49 c0 -3 -14 -14 -31 -24 -20 -12 -29 -24 -26 -35 3
-9 10 -31 15 -48 10 -32 10 -33 -17 -33 -55 0 -65 37 -26 97 57 88 57 88 72
68 7 -11 13 -21 13 -25z m70 25 c0 -3 -21 -32 -47 -65 -46 -60 -55 -63 -67
-24 -5 17 2 24 44 45 27 13 50 30 50 37 0 6 5 12 10 12 6 0 10 -2 10 -5z
m-1020 -75 l25 -21 -40 17 c-22 9 -44 18 -50 20 -5 2 -11 16 -11 30 l-2 25 27
-25 c14 -14 37 -35 51 -46z m53 3 c-7 -2 -19 -2 -25 0 -7 3 -2 5 12 5 14 0 19
-2 13 -5z m940 -109 c-7 -19 15 -36 40 -28 31 10 18 -5 -24 -27 -34 -17 -43
-18 -50 -7 -15 23 -10 46 13 62 28 20 29 20 21 0z m-1158 -35 c5 -16 -2 -28
-32 -54 -44 -39 -63 -43 -88 -15 -17 19 -17 20 11 32 16 7 31 15 34 18 9 10
55 39 62 39 4 1 10 -8 13 -20z m1105 -14 c0 -8 -4 -15 -10 -15 -5 0 -10 7 -10
15 0 8 5 15 10 15 6 0 10 -7 10 -15z m118 -30 c-2 -2 -15 -1 -28 2 l-25 7 25
6 c22 6 39 -4 28 -15z m-1578 5 c0 -5 -5 -10 -11 -10 -5 0 -7 5 -4 10 3 6 8
10 11 10 2 0 4 -4 4 -10z m390 -5 c0 -8 -9 -15 -19 -15 -11 0 -23 -4 -26 -10
-8 -12 -25 -13 -25 -1 0 5 15 16 33 25 39 19 37 19 37 1z m210 -66 c0 -10 -4
-21 -10 -24 -5 -3 -10 -2 -10 3 0 5 -11 15 -24 22 -24 12 -24 14 -8 36 l17 23
18 -20 c9 -12 17 -29 17 -40z m1220 44 c0 -5 -4 -14 -9 -21 -7 -11 -9 -11 -14
1 -3 8 -3 18 0 21 9 8 23 7 23 -1z m-1595 -92 c-17 -17 -85 -42 -85 -31 0 5 6
10 14 10 10 0 12 7 8 22 -3 14 -1 19 6 14 7 -4 20 -3 29 3 21 11 43 -3 28 -18z
m-263 -101 c-5 -32 -19 -40 -28 -15 -6 15 11 45 25 45 4 0 6 -13 3 -30z m535
24 c-3 -3 -12 -4 -19 -1 -8 3 -5 6 6 6 11 1 17 -2 13 -5z m79 -30 c42 -20 64
-59 64 -112 0 -33 -6 -45 -35 -71 -43 -37 -64 -41 -41 -6 24 36 20 79 -10 114
-14 17 -31 31 -38 31 -18 0 -44 -31 -57 -68 -9 -27 -8 -39 8 -70 l19 -39 -29
11 c-85 32 -100 123 -32 183 52 45 97 53 151 27z m739 6 c-3 -5 -12 -7 -20 -3
-21 7 -19 13 6 13 11 0 18 -4 14 -10z m-1310 -20 c3 -5 -1 -10 -9 -10 -9 0
-16 5 -16 10 0 6 4 10 9 10 6 0 13 -4 16 -10z m1305 -8 c19 -11 42 -35 53 -55
16 -31 17 -42 7 -71 -14 -42 -37 -64 -78 -72 l-32 -7 15 29 c8 16 15 35 15 42
0 24 -29 77 -50 90 -44 27 -88 -37 -76 -110 6 -38 6 -40 -11 -27 -33 26 -42
44 -43 81 0 40 36 93 74 108 36 15 90 11 126 -8z m138 -54 c2 -8 -9 -23 -23
-32 -24 -16 -25 -16 -25 8 0 14 -14 42 -32 61 l-31 37 54 -30 c30 -16 55 -36
57 -44z m397 41 c5 -14 1 -27 -10 -38 -15 -15 -17 -15 -30 3 -10 13 -11 24 -4
37 13 25 36 24 44 -2z m-1477 -19 c-7 -11 -18 -22 -26 -25 -8 -3 -6 4 5 20 21
29 38 34 21 5z m181 -50 c6 0 11 -12 11 -26 0 -14 -4 -23 -10 -19 -5 3 -10 13
-10 21 0 8 -4 14 -10 14 -6 0 -6 -9 1 -26 11 -31 3 -64 -16 -64 -17 0 -25 22
-25 69 0 45 19 70 36 46 6 -8 16 -15 23 -15z m697 -24 c18 -58 13 -110 -8 -71
-6 11 -21 32 -35 46 l-24 26 21 26 c12 15 23 27 25 27 2 0 12 -24 21 -54z
m-900 32 c17 9 19 6 19 -19 0 -34 -5 -35 -45 -11 -22 14 -27 21 -18 30 9 9 14
9 19 1 4 -8 12 -8 25 -1z m1618 -19 c-4 -8 1 -9 17 -4 32 11 143 7 198 -7 57
-14 89 -30 130 -64 17 -14 31 -22 31 -18 0 16 53 -43 72 -81 17 -32 18 -37 4
-26 -14 12 -16 8 -16 -41 0 -35 -6 -61 -16 -74 -15 -19 -16 -19 -9 1 5 16 4
18 -6 8 -23 -22 -28 -14 -12 18 14 27 14 35 -1 73 -9 24 -28 53 -41 66 -32 30
-32 21 0 -26 36 -52 34 -102 -5 -139 l-31 -29 17 34 c16 32 16 35 -2 69 -22
40 -50 56 -40 23 10 -30 -10 -95 -34 -110 -23 -14 -25 -7 -5 28 19 33 18 50 0
26 -14 -19 -15 -18 -16 15 0 19 -4 43 -9 54 -7 16 -9 11 -9 -22 -1 -47 -9 -73
-22 -73 -6 0 -5 8 1 19 5 11 10 28 10 38 -1 12 -5 8 -14 -12 -7 -17 -20 -36
-29 -44 -15 -12 -17 -9 -17 35 0 27 -7 58 -15 68 -14 19 -15 18 -15 -16 0 -20
-5 -49 -10 -64 -9 -24 -9 -25 5 -14 13 10 15 9 15 -7 0 -10 -7 -28 -15 -39
-13 -16 -14 -16 -9 -1 8 22 -31 24 -43 2 -5 -7 -28 -17 -53 -20 l-45 -6 35 19
c19 11 39 18 45 16 5 -1 21 11 34 29 14 18 18 26 11 20 -23 -22 -28 -15 -32
50 -4 66 -23 114 -64 162 -24 28 -25 28 -19 6 6 -18 4 -22 -6 -16 -8 5 -4 -3
8 -16 53 -58 80 -172 50 -213 -11 -15 -12 -11 -10 26 l2 43 -11 -45 c-6 -25
-13 -40 -15 -33 -2 7 -11 9 -19 6 -9 -3 -14 1 -14 13 0 14 -4 11 -15 -10 -8
-15 -12 -32 -9 -37 3 -5 -4 -9 -15 -9 -27 0 -27 12 -1 28 17 10 20 23 20 85
-1 68 -2 70 -15 47 -8 -14 -12 -37 -9 -52 3 -17 1 -28 -5 -28 -6 0 -11 -8 -11
-19 0 -10 -6 -24 -14 -30 -11 -9 -15 -7 -20 11 l-6 23 -20 -25 -21 -25 6 30
c6 30 6 30 -8 6 -8 -13 -12 -31 -10 -40 3 -13 -3 -16 -29 -16 -31 0 -33 2 -40
45 -10 67 -9 160 1 160 12 0 21 -36 21 -87 0 -23 5 -45 10 -48 6 -4 10 5 10
20 0 14 9 44 21 66 11 23 15 38 9 34 -7 -4 -18 -21 -26 -39 -7 -17 -13 -25
-14 -18 0 27 33 82 66 112 19 16 34 33 34 36 0 4 -11 -3 -25 -16 -42 -39 -38
-17 4 24 44 43 176 98 155 65z m-1600 -67 c65 -44 72 -47 135 -47 43 0 78 6
100 17 29 15 31 16 20 1 -12 -14 -11 -15 9 -9 35 11 26 -1 -21 -29 -43 -25
-159 -49 -127 -26 13 9 12 11 -5 10 -26 -1 -66 -17 -45 -18 22 -2 124 -51 117
-57 -3 -3 -22 3 -44 14 -68 34 -136 52 -261 66 -133 15 -183 33 -67 23 230
-20 230 -20 219 -8 -6 6 -35 15 -65 18 -44 6 -49 8 -29 14 23 7 23 7 -7 8 -17
1 -35 6 -39 12 -5 9 1 10 20 5 14 -3 26 -2 26 3 0 11 -45 29 -85 34 l-30 3 25
12 c39 18 79 6 154 -46z m1161 36 c25 -11 25 -11 -27 -40 -29 -16 -63 -31 -75
-34 -22 -6 -22 -6 5 -30 22 -19 24 -23 10 -24 -10 0 -18 7 -18 15 0 10 -10 15
-26 15 -20 0 -24 -3 -16 -13 11 -13 -18 -18 -130 -21 -61 -1 -68 -5 -43 -26
29 -24 6 -23 -29 1 -30 20 -76 83 -76 103 0 4 17 -5 37 -19 56 -37 139 -35
219 5 32 17 68 37 79 46 20 15 20 15 0 31 -19 14 -17 15 22 9 23 -3 54 -11 68
-18z m-829 -21 c27 -39 48 -103 39 -117 -11 -17 -24 -11 -31 15 -8 31 -9 31
-63 0 -47 -27 -51 -29 -51 -17 0 4 18 17 40 30 43 25 49 36 24 50 -11 6 -13
11 -5 16 6 4 11 18 11 32 0 33 11 30 36 -9z m527 -50 c-8 -12 -33 20 -33 42 1
12 6 10 20 -8 11 -12 17 -28 13 -34z m-983 35 c0 -11 -48 -34 -79 -38 -21 -3
-20 0 10 21 34 24 69 32 69 17z m1345 -8 c21 -8 49 -14 64 -14 40 3 47 1 31
-10 -8 -5 -28 -10 -43 -10 -16 0 -37 -4 -47 -10 -25 -14 -76 25 -59 46 14 17
9 17 54 -2z m-515 -14 c0 -5 -4 -12 -10 -15 -5 -3 -10 -21 -9 -38 l1 -32 8 33
c4 18 11 36 14 40 9 8 26 -18 26 -40 0 -16 54 -68 71 -68 5 0 9 -4 9 -10 0 -5
-17 1 -37 13 -24 14 -55 22 -83 22 -42 0 -45 2 -43 25 5 57 7 66 16 77 9 12
37 7 37 -7z m-1350 -8 c0 -11 -9 -27 -20 -37 -20 -18 -20 -17 -20 13 0 27 9
39 33 41 4 1 7 -7 7 -17z m260 -2 c0 -5 -2 -10 -4 -10 -3 0 -8 5 -11 10 -3 6
-1 10 4 10 6 0 11 -4 11 -10z m1547 -16 c4 -12 -53 -27 -69 -18 -14 9 24 34
46 31 11 -1 21 -7 23 -13z m212 -9 c-3 -2 -73 -18 -156 -35 -83 -16 -197 -46
-254 -65 -57 -19 -106 -35 -108 -35 -2 0 3 -8 10 -17 12 -15 12 -16 -3 -10
-10 3 -18 2 -18 -2 0 -17 32 -21 58 -7 53 27 139 46 256 56 66 5 124 14 130
20 7 7 3 10 -12 10 -15 0 -22 6 -22 20 0 14 7 20 24 20 19 0 24 -6 30 -37 3
-21 6 -61 6 -90 0 -46 -2 -51 -19 -46 -31 8 -38 60 -11 85 25 23 21 34 -7 19
-11 -5 -59 -12 -109 -16 -106 -8 -173 -20 -233 -42 -41 -16 -42 -18 -25 -31
17 -13 17 -14 2 -8 -52 18 -54 18 -34 2 23 -18 10 -21 -30 -6 -21 8 -29 8 -36
-2 -4 -7 -8 -8 -8 -3 0 6 -8 11 -17 11 -10 1 -27 5 -37 9 -16 7 -18 5 -13 -8
5 -13 0 -15 -29 -13 -19 2 -44 12 -56 22 -21 19 -21 19 -9 -4 11 -21 10 -22
-21 -20 -18 1 -39 6 -45 11 -9 6 -13 6 -13 -2 0 -6 -4 -11 -9 -11 -10 0 5 56
20 75 4 6 28 16 53 24 29 8 46 19 46 29 0 12 6 10 26 -9 l27 -24 -18 28 c-9
15 -15 27 -12 27 16 0 94 -40 106 -54 8 -9 17 -13 20 -9 8 11 84 39 201 75
121 37 367 82 349 63z m-1529 -44 c15 -29 12 -41 -10 -41 -16 0 -20 7 -20 30
0 34 14 39 30 11z m80 -16 c11 -13 7 -15 -24 -15 -25 0 -36 4 -36 15 0 9 9 15
24 15 13 0 29 -7 36 -15z m47 1 c-5 -16 -27 -19 -27 -3 0 7 7 14 15 14 9 0 14
-5 12 -11z m309 -2 c-4 -12 -2 -15 9 -10 8 3 21 8 28 11 7 3 19 -9 27 -28 10
-21 25 -35 46 -40 45 -13 72 -78 38 -91 -23 -9 -27 -8 -20 9 5 13 2 13 -25 -1
-34 -17 -48 -12 -29 11 9 11 9 15 1 15 -6 0 -14 -7 -17 -15 -4 -8 -10 -15 -16
-15 -5 0 -6 5 -2 12 5 8 2 9 -12 3 -30 -12 -115 -15 -108 -3 4 6 -1 6 -14 -1
-27 -14 -45 -14 -36 1 5 8 2 9 -12 3 -10 -4 -29 -8 -41 -8 -13 1 -20 -3 -17
-8 3 -5 -15 -9 -40 -9 -25 0 -46 5 -46 10 0 9 11 11 82 13 15 1 25 4 22 8 -2
4 2 9 8 12 30 11 -222 -25 -271 -39 -20 -6 -23 -4 -18 10 4 10 7 26 7 37 0 23
41 43 52 25 11 -15 10 -38 -1 -32 -4 3 -17 -4 -27 -16 -19 -21 -19 -21 1 -11
26 14 197 43 252 43 24 0 43 4 43 8 0 5 -21 23 -46 41 -54 39 -52 51 4 22 22
-11 42 -17 46 -14 3 4 6 -4 6 -16 0 -22 1 -21 43 7 23 16 51 39 61 51 23 25
30 27 22 5z m312 1 c20 -15 21 -15 15 2 -6 16 -5 16 10 4 38 -31 8 -82 -32
-55 -31 22 -46 5 -46 -53 0 -28 -5 -48 -12 -50 -9 -3 -13 6 -13 25 0 17 -3 37
-6 46 -11 29 -24 6 -24 -42 0 -64 -23 -41 -30 31 -5 54 -12 59 -59 46 -22 -6
-26 33 -5 48 26 19 173 17 202 -2z m652 -16 c0 -16 -7 -19 -40 -19 -22 0 -43
-1 -47 -2 -4 -2 -9 4 -11 13 -2 10 10 18 40 25 51 11 58 9 58 -17z m-1034 2
c-4 -6 -14 -7 -23 -4 -15 6 -14 7 3 13 22 9 29 6 20 -9z m-191 -1 c3 -5 1 -10
-4 -10 -6 0 -11 5 -11 10 0 6 2 10 4 10 3 0 8 -4 11 -10z m915 6 c0 -2 -7 -6
-15 -10 -8 -3 -15 -1 -15 4 0 6 7 10 15 10 8 0 15 -2 15 -4z m176 -21 c-22
-17 -46 -20 -46 -6 0 8 21 16 55 19 6 1 1 -5 -9 -13z m-1494 -82 c-5 -56 -6
-57 -27 -49 -15 5 -15 8 -1 28 9 12 16 35 16 51 0 15 4 26 9 23 4 -3 6 -27 3
-53z m1640 -17 c4 -53 -12 -55 -45 -4 l-28 43 28 6 c36 7 41 2 45 -45z m-1307
34 c-3 -5 -17 -10 -31 -10 -13 0 -24 5 -24 10 0 6 14 10 31 10 17 0 28 -4 24
-10z m55 0 c0 -5 -7 -10 -15 -10 -8 0 -15 5 -15 10 0 6 7 10 15 10 8 0 15 -4
15 -10z m1107 -39 c31 -46 22 -51 -22 -12 -20 17 -48 32 -63 32 l-27 1 30 8
c46 12 57 8 82 -29z m79 12 c23 -30 18 -46 -13 -39 -28 7 -63 39 -63 58 0 16
61 1 76 -19z m-1696 7 c0 -5 -5 -10 -11 -10 -5 0 -7 5 -4 10 3 6 8 10 11 10 2
0 4 -4 4 -10z m1554 -20 c45 -17 28 -29 -39 -29 -68 1 -80 9 -42 27 28 14 49
14 81 2z m-1555 -21 c-16 -10 -23 -4 -14 10 3 6 11 8 17 5 6 -4 5 -9 -3 -15z
m2291 11 c0 -5 -4 -10 -10 -10 -5 0 -10 5 -10 10 0 6 5 10 10 10 6 0 10 -4 10
-10z m40 -10 c0 -11 -4 -20 -9 -20 -14 0 -23 18 -16 30 10 17 25 11 25 -10z
m72 -2 c-7 -7 -12 -8 -12 -2 0 14 12 26 19 19 2 -3 -1 -11 -7 -17z m-2172 2
c0 -5 -4 -10 -10 -10 -5 0 -10 5 -10 10 0 6 5 10 10 10 6 0 10 -4 10 -10z
m2267 -6 c2 -7 -6 -10 -21 -7 -14 3 -23 10 -20 15 8 12 36 6 41 -8z"/>
<path d="M2591 611 c24 -15 53 -38 63 -49 26 -30 42 -28 22 3 -19 29 -11 32
24 8 14 -9 19 -10 13 -3 -16 17 -17 34 -2 25 5 -4 25 -9 42 -11 l32 -4 -24 17
c-13 9 -31 19 -40 21 -45 9 -71 13 -120 17 l-53 4 43 -28z"/>
<path d="M2517 615 c12 -9 29 -26 38 -38 12 -17 15 -18 15 -5 0 21 -38 58 -59
58 -11 0 -9 -4 6 -15z"/>
<path d="M2828 566 c20 -19 38 -33 40 -31 8 7 -24 44 -45 54 -36 17 -36 14 5
-23z"/>
<path d="M2432 573 c9 -10 23 -31 31 -48 16 -30 16 -30 17 -5 0 32 -26 70 -47
70 -14 0 -15 -2 -1 -17z"/>
<path d="M2869 575 c17 -33 31 -51 31 -40 0 6 -10 21 -21 35 -13 17 -17 18
-10 5z"/>
<path d="M2400 550 c-9 -6 -10 -10 -3 -10 6 0 15 5 18 10 8 12 4 12 -15 0z"/>
<path d="M2277 443 c-14 -51 -16 -73 -8 -73 5 0 12 18 16 41 7 41 1 65 -8 32z"/>
<path d="M1550 410 c0 -12 28 -25 36 -17 3 3 -4 10 -15 17 -15 7 -21 7 -21 0z"/>
<path d="M1612 408 c3 -7 13 -15 24 -17 16 -3 17 -1 5 13 -16 19 -34 21 -29 4z"/>
<path d="M1675 400 c-4 -6 6 -10 22 -10 22 0 25 2 13 10 -19 12 -27 12 -35 0z"/>
<path d="M1078 423 c-26 -4 -56 -29 -46 -39 3 -2 16 0 30 5 13 5 36 7 50 4 29
-5 48 14 27 28 -8 5 -18 8 -24 7 -5 0 -22 -3 -37 -5z m47 -13 c-3 -5 -11 -10
-16 -10 -6 0 -7 5 -4 10 3 6 11 10 16 10 6 0 7 -4 4 -10z"/>
<path d="M1180 410 c0 -5 5 -10 10 -10 6 0 10 5 10 10 0 6 -4 10 -10 10 -5 0
-10 -4 -10 -10z"/>
<path d="M130 1650 c-9 -6 -10 -10 -3 -10 6 0 15 5 18 10 8 12 4 12 -15 0z"/>
<path d="M1111 1644 c0 -11 3 -14 6 -6 3 7 2 16 -1 19 -3 4 -6 -2 -5 -13z"/>
<path d="M2075 1650 c-3 -5 -1 -10 4 -10 6 0 11 5 11 10 0 6 -2 10 -4 10 -3 0
-8 -4 -11 -10z"/>
<path d="M2549 1643 c-13 -16 -12 -17 4 -4 16 13 21 21 13 21 -2 0 -10 -8 -17
-17z"/>
<path d="M1776 1612 c-3 -5 1 -9 9 -9 8 0 15 4 15 9 0 4 -4 8 -9 8 -6 0 -12
-4 -15 -8z"/>
<path d="M238 1593 c7 -3 16 -2 19 1 4 3 -2 6 -13 5 -11 0 -14 -3 -6 -6z"/>
<path d="M2425 1573 c-18 -14 -18 -15 -2 -9 10 3 23 6 28 6 5 0 9 5 9 10 0 14
-12 12 -35 -7z"/>
<path d="M940 1570 c-9 -6 -10 -10 -3 -10 6 0 15 5 18 10 8 12 4 12 -15 0z"/>
<path d="M292 1530 c0 -19 2 -27 5 -17 2 9 2 25 0 35 -3 9 -5 1 -5 -18z"/>
<path d="M1191 1534 c0 -11 3 -14 6 -6 3 7 2 16 -1 19 -3 4 -6 -2 -5 -13z"/>
<path d="M1445 1540 c3 -5 8 -10 11 -10 2 0 4 5 4 10 0 6 -5 10 -11 10 -5 0
-7 -4 -4 -10z"/>
<path d="M1871 1514 c0 -11 3 -14 6 -6 3 7 2 16 -1 19 -3 4 -6 -2 -5 -13z"/>
<path d="M2792 1485 c0 -16 2 -22 5 -12 2 9 2 23 0 30 -3 6 -5 -1 -5 -18z"/>
<path d="M1504 1474 c-18 -14 -18 -15 4 -4 12 6 22 13 22 15 0 8 -5 6 -26 -11z"/>
<path d="M2858 1443 c7 -3 16 -2 19 1 4 3 -2 6 -13 5 -11 0 -14 -3 -6 -6z"/>
<path d="M1650 1316 c0 -80 -4 -115 -17 -139 -9 -18 -18 -27 -20 -20 -3 8 -13
8 -38 -3 -41 -17 -59 -18 -49 -3 4 7 0 9 -12 6 -59 -18 -74 -19 -74 -5 0 8 5
19 12 26 22 22 -6 13 -37 -12 l-30 -24 -17 21 c-10 11 -18 25 -18 31 0 6 -12
-2 -25 -17 l-25 -28 -1 28 c-2 24 -2 24 -6 6 -5 -28 -4 -28 -47 -2 -41 24 -44
43 -23 126 8 29 10 50 6 47 -22 -13 -41 -162 -25 -196 6 -13 4 -18 -9 -18 -9
0 -13 5 -10 10 3 6 2 10 -4 10 -13 0 -35 -132 -27 -166 10 -39 22 -17 36 69
l12 68 26 -16 c15 -9 42 -33 60 -53 26 -29 31 -31 21 -12 -6 14 -21 38 -32 54
l-20 28 20 -10 c28 -15 82 -79 100 -116 14 -30 14 -30 9 27 -5 60 -1 71 13 35
9 -23 9 -23 21 5 20 42 28 32 16 -23 -5 -27 -7 -53 -3 -57 9 -9 81 61 108 105
12 17 28 32 37 32 13 0 12 -3 -5 -15 -13 -9 -27 -34 -33 -56 -14 -49 -7 -61
10 -20 6 16 43 60 82 96 38 37 66 70 62 73 -4 4 -9 1 -11 -5 -13 -35 -20 -2
-22 99 -1 62 -4 114 -7 117 -2 2 -4 -44 -4 -103z m-245 -190 c21 5 26 4 23 -7
-3 -8 -16 -13 -29 -11 -36 4 -79 23 -73 33 3 5 16 2 28 -7 16 -10 33 -13 51
-8z m121 -7 c3 -6 1 -16 -5 -22 -8 -8 -17 -5 -33 11 l-22 22 26 0 c15 0 30 -5
34 -11z m-174 -16 c10 -9 18 -20 18 -25 0 -11 -49 24 -50 35 0 12 12 8 32 -10z
m128 -14 c0 -6 -4 -7 -10 -4 -5 3 -10 11 -10 16 0 6 5 7 10 4 6 -3 10 -11 10
-16z m20 -23 c0 -2 -12 -12 -27 -21 l-28 -18 19 21 c17 20 36 29 36 18z"/>
<path d="M1300 1399 c0 -5 5 -7 10 -4 6 3 10 8 10 11 0 2 -4 4 -10 4 -5 0 -10
-5 -10 -11z"/>
<path d="M1436 1393 c-6 -14 -5 -15 5 -6 7 7 10 15 7 18 -3 3 -9 -2 -12 -12z"/>
<path d="M1736 1329 c-9 -29 -16 -63 -16 -75 0 -46 -47 -124 -75 -124 -7 0
-17 -11 -23 -25 -13 -28 -6 -32 17 -11 15 13 16 4 13 -96 -3 -84 -1 -109 8
-103 9 5 10 1 5 -14 -9 -28 -1 -27 48 9 66 47 122 98 115 105 -3 4 -25 -10
-47 -30 -46 -42 -52 -39 -19 8 20 29 20 30 3 17 -11 -8 -28 -23 -37 -34 -30
-36 -27 -12 3 33 34 49 34 61 0 30 -30 -28 -34 -20 -16 32 l15 44 -21 -25 -21
-25 6 35 c4 21 3 31 -3 25 -5 -6 -11 -23 -14 -40 -3 -24 -4 -22 -6 12 -1 36 3
45 29 63 17 12 30 29 30 38 0 10 9 23 20 30 11 7 20 20 20 30 0 14 -4 12 -20
-8 l-19 -25 6 45 c3 25 9 63 14 85 12 58 3 55 -15 -6z m-43 -354 c-7 -21 -13
-19 -13 6 0 11 4 18 10 14 5 -3 7 -12 3 -20z m3 -73 c-9 -8 -26 10 -26 26 1
15 2 15 15 -2 8 -11 13 -21 11 -24z"/>
<path d="M2820 1370 c0 -5 5 -10 10 -10 6 0 10 5 10 10 0 6 -4 10 -10 10 -5 0
-10 -4 -10 -10z"/>
<path d="M1290 1340 c-18 -12 -2 -12 25 0 13 6 15 9 5 9 -8 0 -22 -4 -30 -9z"/>
<path d="M2837 1316 c-4 -10 -1 -13 8 -9 8 3 12 9 9 14 -7 12 -11 11 -17 -5z"/>
<path d="M2665 1270 c3 -5 8 -10 11 -10 2 0 4 5 4 10 0 6 -5 10 -11 10 -5 0
-7 -4 -4 -10z"/>
<path d="M100 1220 c0 -5 5 -10 10 -10 6 0 10 5 10 10 0 6 -4 10 -10 10 -5 0
-10 -4 -10 -10z"/>
<path d="M326 1215 c-11 -8 -15 -15 -9 -15 6 0 16 7 23 15 16 19 11 19 -14 0z"/>
<path d="M2869 1183 c-13 -16 -12 -17 4 -4 9 7 17 15 17 17 0 8 -8 3 -21 -13z"/>
<path d="M130 1174 c0 -8 5 -12 10 -9 6 4 8 11 5 16 -9 14 -15 11 -15 -7z"/>
<path d="M2455 1160 c3 -5 8 -10 11 -10 2 0 4 5 4 10 0 6 -5 10 -11 10 -5 0
-7 -4 -4 -10z"/>
<path d="M208 1133 c7 -3 16 -2 19 1 4 3 -2 6 -13 5 -11 0 -14 -3 -6 -6z"/>
<path d="M240 1136 c0 -2 8 -10 18 -17 15 -13 16 -12 3 4 -13 16 -21 21 -21
13z"/>
<path d="M2645 1120 c-3 -5 -2 -10 4 -10 5 0 13 5 16 10 3 6 2 10 -4 10 -5 0
-13 -4 -16 -10z"/>
<path d="M72 1050 c0 -14 2 -19 5 -12 2 6 2 18 0 25 -3 6 -5 1 -5 -13z"/>
<path d="M2452 990 c0 -14 2 -19 5 -12 2 6 2 18 0 25 -3 6 -5 1 -5 -13z"/>
<path d="M989 974 c26 -33 71 -68 71 -55 0 6 -16 26 -35 46 -41 40 -66 47 -36
9z"/>
<path d="M2696 991 c-3 -5 1 -11 9 -15 8 -3 15 -1 15 4 0 13 -18 22 -24 11z"/>
<path d="M1300 970 c-9 -6 -10 -10 -3 -10 6 0 15 5 18 10 8 12 4 12 -15 0z"/>
<path d="M1875 953 c-30 -17 -35 -23 -20 -23 18 -1 18 -2 -2 -10 -33 -13 -28
-19 10 -15 17 3 53 7 78 10 26 3 55 12 65 19 16 12 13 14 -31 11 -28 -2 -39
-1 -25 1 14 3 29 10 35 15 6 6 -3 7 -24 3 -18 -4 -36 -3 -40 3 -3 5 -23 0 -46
-14z"/>
<path d="M1371 954 c0 -11 3 -14 6 -6 3 7 2 16 -1 19 -3 4 -6 -2 -5 -13z"/>
<path d="M2720 940 c0 -5 5 -10 11 -10 5 0 7 5 4 10 -3 6 -8 10 -11 10 -2 0
-4 -4 -4 -10z"/>
<path d="M2815 940 c-3 -6 1 -7 9 -4 18 7 21 14 7 14 -6 0 -13 -4 -16 -10z"/>
<path d="M1320 930 c0 -5 5 -10 10 -10 6 0 10 5 10 10 0 6 -4 10 -10 10 -5 0
-10 -4 -10 -10z"/>
<path d="M1942 900 c-46 -11 -51 -20 -11 -20 19 0 59 -2 89 -5 53 -5 54 -5 25
9 -46 21 -67 24 -103 16z"/>
<path d="M1341 884 c0 -11 3 -14 6 -6 3 7 2 16 -1 19 -3 4 -6 -2 -5 -13z"/>
<path d="M2871 854 c0 -11 3 -14 6 -6 3 7 2 16 -1 19 -3 4 -6 -2 -5 -13z"/>
<path d="M2556 791 c-4 -5 3 -7 14 -4 23 6 26 13 6 13 -8 0 -17 -4 -20 -9z"/>
<path d="M2920 726 c0 -2 8 -10 18 -17 15 -13 16 -12 3 4 -13 16 -21 21 -21
13z"/>
<path d="M810 275 c0 -8 4 -15 10 -15 5 0 7 7 4 15 -4 8 -8 15 -10 15 -2 0 -4
-7 -4 -15z"/>
<path d="M1063 255 c0 -22 2 -30 4 -17 2 12 2 30 0 40 -3 9 -5 -1 -4 -23z"/>
<path d="M1715 240 c-3 -5 -1 -10 4 -10 6 0 11 5 11 10 0 6 -2 10 -4 10 -3 0
-8 -4 -11 -10z"/>
<path d="M95 230 c-12 -5 1 -6 35 -3 30 3 57 7 59 9 9 8 -75 2 -94 -6z"/>
<path d="M2032 200 c0 -14 2 -19 5 -12 2 6 2 18 0 25 -3 6 -5 1 -5 -13z"/>
<path d="M2955 210 c-3 -6 1 -7 9 -4 18 7 21 14 7 14 -6 0 -13 -4 -16 -10z"/>
<path d="M1485 170 c-3 -5 -1 -10 4 -10 6 0 11 5 11 10 0 6 -2 10 -4 10 -3 0
-8 -4 -11 -10z"/>
<path d="M2140 169 c0 -5 5 -7 10 -4 6 3 10 8 10 11 0 2 -4 4 -10 4 -5 0 -10
-5 -10 -11z"/>
<path d="M1720 160 c-13 -8 -12 -10 3 -10 9 0 17 5 17 10 0 12 -1 12 -20 0z"/>
<path d="M460 116 c0 -2 8 -10 18 -17 15 -13 16 -12 3 4 -13 16 -21 21 -21 13z"/>
<path d="M635 110 c-3 -5 -1 -10 4 -10 6 0 11 5 11 10 0 6 -2 10 -4 10 -3 0
-8 -4 -11 -10z"/>
<path d="M1999 103 c-13 -16 -12 -17 4 -4 16 13 21 21 13 21 -2 0 -10 -8 -17
-17z"/>
<path d="M2750 105 c0 -8 4 -15 10 -15 5 0 7 7 4 15 -4 8 -8 15 -10 15 -2 0
-4 -7 -4 -15z"/>
</g>
</svg>
